REM DIRINDEX 1\2,1\3,1\4,1\5,1\6,1\7,1\8
REM DIRNAME folder01,folder02,folder03,folder04,folder05,folder06,folder07,folder08
TITLE ""
FILE "010 でる文80.mp3" MP3
  TRACK 01 AUDIO
    TITLE "0:"
    INDEX 01 00:00:00
  TRACK 02 AUDIO
    TITLE "8:cjc150_3853"
    INDEX 01 00:00:01
  TRACK 03 AUDIO
    TITLE "0:"
    INDEX 01 00:01:44
  TRACK 04 AUDIO
    TITLE "2:cjc150_3854"
    INDEX 01 00:02:28
  TRACK 05 AUDIO
    TITLE "0:"
    INDEX 01 00:08:72
  TRACK 06 AUDIO
    TITLE "8:cjc150_3855"
    INDEX 01 00:10:29
  TRACK 07 AUDIO
    TITLE "0:"
    INDEX 01 00:13:06
  TRACK 08 AUDIO
    TITLE "3:cjc150_3856"
    INDEX 01 00:13:63
  TRACK 09 AUDIO
    TITLE "3:cjc150_3857"
    INDEX 01 00:15:07
  TRACK 10 AUDIO
    TITLE "3:cjc150_3858"
    INDEX 01 00:16:26
  TRACK 11 AUDIO
    TITLE "3:cjc150_3859"
    INDEX 01 00:18:35
  TRACK 12 AUDIO
    TITLE "3:cjc150_3860"
    INDEX 01 00:20:36
  TRACK 13 AUDIO
    TITLE "3:cjc150_3861"
    INDEX 01 00:22:11
  TRACK 14 AUDIO
    TITLE "3:cjc150_3862"
    INDEX 01 00:23:65
  TRACK 15 AUDIO
    TITLE "3:cjc150_3863"
    INDEX 01 00:25:46
  TRACK 16 AUDIO
    TITLE "3:cjc150_3864"
    INDEX 01 00:27:39
  TRACK 17 AUDIO
    TITLE "3:cjc150_3865"
    INDEX 01 00:29:38
  TRACK 18 AUDIO
    TITLE "8:cjc150_3866"
    INDEX 01 00:31:37
  TRACK 19 AUDIO
    TITLE "0:"
    INDEX 01 00:34:14
  TRACK 20 AUDIO
    TITLE "4:cjc150_3867"
    INDEX 01 00:34:73
  TRACK 21 AUDIO
    TITLE "4:cjc150_3868"
    INDEX 01 00:37:50
  TRACK 22 AUDIO
    TITLE "4:cjc150_3869"
    INDEX 01 00:40:72
  TRACK 23 AUDIO
    TITLE "4:cjc150_3870"
    INDEX 01 00:43:70
  TRACK 24 AUDIO
    TITLE "4:cjc150_3871"
    INDEX 01 00:47:32
  TRACK 25 AUDIO
    TITLE "4:cjc150_3872"
    INDEX 01 00:49:37
  TRACK 26 AUDIO
    TITLE "8:cjc150_3873"
    INDEX 01 00:52:08
  TRACK 27 AUDIO
    TITLE "0:"
    INDEX 01 00:55:03
  TRACK 28 AUDIO
    TITLE "5:cjc150_3874"
    INDEX 01 00:55:61
  TRACK 29 AUDIO
    TITLE "5:cjc150_3875"
    INDEX 01 00:57:07
  TRACK 30 AUDIO
    TITLE "5:cjc150_3876"
    INDEX 01 00:59:12
  TRACK 31 AUDIO
    TITLE "5:cjc150_3877"
    INDEX 01 01:00:33
  TRACK 32 AUDIO
    TITLE "5:cjc150_3878"
    INDEX 01 01:01:46
  TRACK 33 AUDIO
    TITLE "5:cjc150_3879"
    INDEX 01 01:03:29
  TRACK 34 AUDIO
    TITLE "5:cjc150_3880"
    INDEX 01 01:06:32
  TRACK 35 AUDIO
    TITLE "5:cjc150_3881"
    INDEX 01 01:08:42
  TRACK 36 AUDIO
    TITLE "5:cjc150_3882"
    INDEX 01 01:10:43
  TRACK 37 AUDIO
    TITLE "5:cjc150_3883"
    INDEX 01 01:12:60
  TRACK 38 AUDIO
    TITLE "5:cjc150_3884"
    INDEX 01 01:15:23
  TRACK 39 AUDIO
    TITLE "5:cjc150_3885"
    INDEX 01 01:16:73
  TRACK 40 AUDIO
    TITLE "5:cjc150_3886"
    INDEX 01 01:18:51
  TRACK 41 AUDIO
    TITLE "5:cjc150_3887"
    INDEX 01 01:19:62
  TRACK 42 AUDIO
    TITLE "5:cjc150_3888"
    INDEX 01 01:22:35
  TRACK 43 AUDIO
    TITLE "5:cjc150_3889"
    INDEX 01 01:24:24
  TRACK 44 AUDIO
    TITLE "5:cjc150_3890"
    INDEX 01 01:26:13
  TRACK 45 AUDIO
    TITLE "5:cjc150_3891"
    INDEX 01 01:28:08
  TRACK 46 AUDIO
    TITLE "5:cjc150_3892"
    INDEX 01 01:30:62
  TRACK 47 AUDIO
    TITLE "5:cjc150_3893"
    INDEX 01 01:32:60
  TRACK 48 AUDIO
    TITLE "8:cjc150_3894"
    INDEX 01 01:34:54
  TRACK 49 AUDIO
    TITLE "0:"
    INDEX 01 01:37:36
  TRACK 50 AUDIO
    TITLE "6:cjc150_3895"
    INDEX 01 01:38:14
  TRACK 51 AUDIO
    TITLE "6:cjc150_3896"
    INDEX 01 01:40:40
  TRACK 52 AUDIO
    TITLE "6:cjc150_3897"
    INDEX 01 01:44:07
  TRACK 53 AUDIO
    TITLE "6:cjc150_3898"
    INDEX 01 01:46:59
  TRACK 54 AUDIO
    TITLE "6:cjc150_3899"
    INDEX 01 01:49:35
  TRACK 55 AUDIO
    TITLE "6:cjc150_3900"
    INDEX 01 01:52:18
  TRACK 56 AUDIO
    TITLE "6:cjc150_3901"
    INDEX 01 01:56:08
  TRACK 57 AUDIO
    TITLE "6:cjc150_3902"
    INDEX 01 01:59:08
  TRACK 58 AUDIO
    TITLE "6:cjc150_3903"
    INDEX 01 02:02:07
  TRACK 59 AUDIO
    TITLE "6:cjc150_3904"
    INDEX 01 02:03:73
  TRACK 60 AUDIO
    TITLE "6:cjc150_3905"
    INDEX 01 02:06:65
  TRACK 61 AUDIO
    TITLE "6:cjc150_3906"
    INDEX 01 02:08:72
  TRACK 62 AUDIO
    TITLE "8:cjc150_3907"
    INDEX 01 02:10:26
  TRACK 63 AUDIO
    TITLE "0:"
    INDEX 01 02:12:03
  TRACK 64 AUDIO
    TITLE "7:cjc150_3908"
    INDEX 01 02:12:72
  TRACK 65 AUDIO
    TITLE "7:cjc150_3909"
    INDEX 01 02:19:40
  TRACK 66 AUDIO
    TITLE "0:"
    INDEX 01 02:26:07
